<?xml version="1.0" encoding="UTF-8" standalone="no"?>
<svg xmlns:dc="http://purl.org/dc/elements/1.1/" xmlns:cc="http://creativecommons.org/ns#" xmlns:rdf="http://www.w3.org/1999/02/22-rdf-syntax-ns#" xmlns:svg="http://www.w3.org/2000/svg" xmlns="http://www.w3.org/2000/svg" xmlns:xlink="http://www.w3.org/1999/xlink" viewBox="0 0 524.47998 202.56" height="202.56" width="524.47998" xml:space="preserve" id="svg2" version="1.1"><defs id="defs6"><clipPath id="clipPath20" clipPathUnits="userSpaceOnUse"><path id="path18" d="M 0,0 V 1519 H 2864 V 0 Z"/></clipPath><clipPath id="clipPath32" clipPathUnits="userSpaceOnUse"><path id="path30" d="M 2858,0 V 1519 H 3934 V 0 Z"/></clipPath></defs><g transform="matrix(1.3333333,0,0,-1.3333333,0,202.56)" id="g10" ><g transform="scale(0.1)" id="g12"><path id="path38" style="fill:#ffffff;fill-opacity:1;fill-rule:nonzero;stroke:none" d="M 1106.95,644.875 H 713.613 V 771.297 H 1159.72 L 1278.3,1055.38 H 381.23 V 644.875 H 60 V 386.352 H 381.23 V 61.0703 H 713.613 V 386.352 h 285.426 l 107.911,258.523"/><path id="path42" style="fill:#ffffff;fill-opacity:1;fill-rule:nonzero;stroke:none" d="m 3186.9,441.738 h 485.79 V 681.805 H 3186.9 v 92.332 h 521.3 v 8.515 272.728 H 1877.58 l 117.69,-281.243 h 221.3 V 61.0703 h 332.38 V 774.137 h 311.26 V 61.0703 H 3715.3 V 333.801 h -528.4 v 107.937"/><path id="path44" style="fill:#ffffff;fill-opacity:1;fill-rule:nonzero;stroke:none" d="m 1488.1,429.93 90.9,241.48 90.91,-241.48 z M 1581.85,1459.2 998.242,61.0703 c 122.538,27.0781 248.188,45.8277 376.368,55.5707 l 29.68,77.5 h 348 l 30.34,-77.051 c 130.41,-9.61 258.22,-28.5002 382.82,-56.0197 L 1746.62,1062.03 1581.85,1459.2"/><path id="path46" style="fill:#ffffff;fill-opacity:1;fill-rule:nonzero;stroke:none" d="m 1958.46,1259.86 c 14.41,0 24.01,6.49 24.01,18.49 v 0.48 c 0,12.24 -8.88,18.49 -23.76,18.49 h -15.37 v -37.46 z m -71.28,82.34 h 75.61 c 44.64,0 75.13,-19.92 75.13,-59.77 v -0.48 c 0,-40.56 -30.97,-62.16 -76.33,-62.16 h -18.25 v -45.61 h -56.16 v 168.02"/><path id="path48" style="fill:#ffffff;fill-opacity:1;fill-rule:nonzero;stroke:none" d="m 2190.79,1257.71 v 0.47 c 0,19.93 -13.69,37.93 -35.29,37.93 -21.35,0 -34.8,-17.76 -34.8,-37.44 v -0.49 c 0,-19.92 13.68,-37.91 35.28,-37.91 21.37,0 34.81,17.76 34.81,37.44 z m -126.73,0 v 0.47 c 0,48.73 40.08,87.61 91.92,87.61 51.85,0 91.46,-38.4 91.46,-87.12 v -0.49 c 0,-48.72 -40.09,-87.6 -91.94,-87.6 -51.84,0 -91.44,38.4 -91.44,87.13"/><path id="path50" style="fill:#ffffff;fill-opacity:1;fill-rule:nonzero;stroke:none" d="m 2261.58,1342.2 h 58.81 l 23.76,-80.66 27.11,81.14 h 48.49 l 27.12,-81.14 23.77,80.66 h 57.84 l -54.97,-169.22 h -48.95 l -29.54,83.52 -29.52,-83.52 h -48.96 l -54.96,169.22"/><path id="path52" style="fill:#ffffff;fill-opacity:1;fill-rule:nonzero;stroke:none" d="m 2556.07,1342.2 h 143.29 v -46.09 h -88.09 v -17.04 h 82.09 v -40.56 h -82.09 v -18.24 h 89.29 v -46.09 h -144.49 v 168.02"/><path id="path54" style="fill:#ffffff;fill-opacity:1;fill-rule:nonzero;stroke:none" d="m 2814.08,1262.27 c 13.43,0 21.6,6 21.6,16.32 v 0.48 c 0,10.81 -8.4,16.08 -21.37,16.08 h -24.48 v -32.88 z m -80.41,79.93 h 82.09 c 29.76,0 48.72,-7.44 60.49,-19.21 10.07,-10.08 15.36,-22.56 15.36,-39.85 v -0.47 c 0,-24.49 -12.73,-41.53 -33.13,-51.36 l 39.12,-57.13 h -64.08 l -31.69,48.01 h -12 v -48.01 h -56.16 v 168.02"/><path id="path56" style="fill:#ffffff;fill-opacity:1;fill-rule:nonzero;stroke:none" d="m 2923.27,1342.2 h 143.29 v -46.09 h -88.09 v -17.04 h 82.09 v -40.56 h -82.09 v -18.24 h 89.29 v -46.09 h -144.49 v 168.02"/><path id="path58" style="fill:#ffffff;fill-opacity:1;fill-rule:nonzero;stroke:none" d="m 3157.03,1293.23 v -70.09 h 9.36 c 25.69,0 42.25,10.56 42.25,34.81 v 0.48 c 0,24.24 -16.56,34.8 -42.25,34.8 z m -56.17,48.97 h 64.33 c 66.73,0 100.09,-32.89 100.09,-82.57 v -0.48 c 0,-49.69 -34.08,-84.97 -102.01,-84.97 h -62.41 v 168.02"/><path id="path60" style="fill:#ffffff;fill-opacity:1;fill-rule:nonzero;stroke:none" d="M 3450.32,1241.62 H 3422 v -24.96 h 28.08 c 12.24,0 18.48,5.04 18.48,12.25 v 0.48 c 0,7.19 -6,12.23 -18.24,12.23 z m 13.92,46.58 c 0,7.44 -6,11.51 -18,11.51 H 3422 v -23.52 h 24.48 c 12,0 17.76,4.08 17.76,11.52 z m -96.97,54 h 94.09 c 23.28,0 37.92,-5.29 47.77,-15.13 5.99,-6 10.32,-14.64 10.32,-26.16 v -0.48 c 0,-19.92 -12,-32.16 -30.01,-38.4 21.6,-6.24 35.53,-17.76 35.53,-40.81 v -0.48 c 0,-26.88 -22.08,-46.56 -64.57,-46.56 h -93.13 v 168.02"/><path id="path62" style="fill:#ffffff;fill-opacity:1;fill-rule:nonzero;stroke:none" d="m 3597.92,1233.7 -63.36,108.5 h 62.88 l 28.81,-55.21 29.04,55.21 h 62.16 l -63.36,-107.77 v -60.25 h -56.17 v 59.52"/></g></g></svg>