<?xml version="1.0" standalone="no"?>
<!DOCTYPE svg PUBLIC "-//W3C//DTD SVG 20010904//EN"
 "http://www.w3.org/TR/2001/REC-SVG-20010904/DTD/svg10.dtd">
<svg version="1.0" xmlns="http://www.w3.org/2000/svg"
 width="128.000000pt" height="128.000000pt" viewBox="0 0 128.000000 128.000000"
 preserveAspectRatio="xMidYMid meet">
<metadata>
Created by potrace 1.11, written by Peter Selinger 2001-2013
</metadata>
<g transform="translate(0.000000,128.000000) scale(0.100000,-0.100000)"
fill="#000000" stroke="none">
<path d="M438 773 c-48 -115 -90 -215 -93 -224 -5 -14 1 -15 54 -5 33 6 66 17
73 24 16 16 105 16 115 -1 6 -10 133 -40 133 -31 0 1 -33 80 -73 175 -41 96
-82 195 -93 221 -10 27 -21 48 -24 48 -3 0 -45 -93 -92 -207z m107 -90 c5 -20
3 -23 -18 -23 -24 0 -25 2 -14 30 12 31 20 29 32 -7z"/>
<path d="M140 795 l0 -65 -50 0 -50 0 0 -45 0 -45 50 0 50 0 0 -55 0 -56 58 3
57 3 -1 53 -2 52 48 0 c43 0 49 3 58 28 5 15 13 35 17 45 6 15 0 17 -59 17
-52 0 -66 3 -66 15 0 12 15 15 74 15 l74 0 16 40 c9 22 16 45 16 50 0 6 -57
10 -145 10 l-145 0 0 -65z"/>
<path d="M620 856 c0 -2 9 -24 20 -50 19 -42 24 -46 55 -46 l35 0 0 -115 0
-115 55 0 55 0 0 115 0 115 48 0 47 0 0 -112 0 -113 140 0 140 0 0 45 0 45
-82 3 c-57 2 -83 7 -83 15 0 8 22 12 72 12 l73 0 3 43 3 42 -75 0 c-44 0 -76
4 -76 10 0 6 33 10 80 10 l80 0 0 50 0 50 -295 0 c-162 0 -295 -2 -295 -4z"/>
<path d="M130 416 c0 -59 3 -76 14 -76 11 0 14 12 13 45 -1 25 0 45 3 45 3 0
12 -20 19 -45 18 -60 39 -56 62 10 l17 50 1 -52 c1 -40 5 -53 16 -53 12 0 15
15 15 75 0 73 -1 75 -25 75 -14 0 -25 -5 -25 -12 0 -7 -8 -32 -17 -56 l-16
-44 -17 54 c-12 41 -21 54 -38 56 -21 3 -22 0 -22 -72z"/>
<path d="M361 453 c-8 -21 -13 -39 -12 -41 1 -1 -5 -15 -14 -32 -19 -36 -19
-40 0 -40 9 0 18 7 21 15 4 8 18 15 34 15 16 0 30 -7 34 -15 6 -16 36 -21 36
-6 0 5 -11 37 -24 72 -29 79 -55 89 -75 32z m46 -49 c-3 -3 -12 -4 -20 -2 -11
2 -12 9 -5 28 l10 25 11 -23 c5 -12 8 -25 4 -28z"/>
<path d="M490 415 c0 -59 3 -75 15 -75 11 0 14 12 12 50 -1 28 0 50 3 50 3 0
18 -23 33 -50 19 -33 35 -50 48 -50 17 0 19 7 19 75 0 60 -3 75 -15 75 -12 0
-15 -10 -12 -50 5 -57 -3 -56 -39 6 -16 27 -33 44 -45 44 -17 0 -19 -8 -19
-75z"/>
<path d="M678 415 c-24 -69 -25 -75 -8 -75 10 0 20 7 24 15 3 8 17 15 31 15
14 0 28 -7 31 -15 4 -8 14 -15 24 -15 16 0 15 6 -9 75 -20 60 -30 75 -46 75
-16 0 -25 -15 -47 -75z m55 -13 c-21 -5 -25 2 -17 33 l7 28 12 -29 c10 -24 9
-30 -2 -32z"/>
<path d="M836 467 c-45 -45 -14 -127 48 -127 43 0 55 11 54 48 -1 28 -4 32
-30 32 -18 0 -28 -5 -28 -15 0 -8 8 -15 17 -15 12 0 14 -3 6 -11 -20 -20 -53
-1 -53 30 0 34 15 48 55 53 42 4 37 22 -7 26 -29 2 -43 -2 -62 -21z"/>
<path d="M980 415 l0 -75 45 0 c33 0 45 4 45 15 0 10 -10 15 -30 15 -37 0 -41
27 -5 32 33 4 36 22 4 28 -36 7 -35 30 1 30 20 0 30 5 30 15 0 11 -12 15 -45
15 l-45 0 0 -75z"/>
<path d="M1110 415 c0 -60 3 -75 15 -75 9 0 15 9 15 25 0 14 4 25 9 25 5 0 18
-11 29 -25 11 -14 27 -25 37 -25 14 0 14 3 -4 26 -19 24 -19 28 -4 50 14 22
14 26 -1 49 -13 20 -25 25 -56 25 l-40 0 0 -75z m68 28 c-5 -26 -38 -29 -38
-4 0 15 6 21 21 21 14 0 19 -5 17 -17z"/>
</g>
</svg>
